# xmcd
#
# Track frame offsets: 
#        182
#        28227
#        47012
#        63192
#        84297
#        104595
#        123970
#        140882
#        162012
#
# Disc length: 2417 seconds
#
# Revision: 1
# Processed by: cddbd v1.5.2PL0 Copyright (c) Steve Scherf et al.
# Submitted via: ExactAudioCopy v0.95a5
#
DISCID=75096f09
DTITLE=Mike and the Mechanics - Mike and the Mechanics
DYEAR=1985
DGENRE=Rock
TTITLE0=Silent Running
TTITLE1=All I Need Is a Miracle
TTITLE2=Par Avion
TTITLE3=Hanging by a Thread
TTITLE4=I Get the Feeling
TTITLE5=Take the Reins
TTITLE6=You Are the One
TTITLE7=A Call to Arms
TTITLE8=Taken In
EXTD=UPC 724384282721\n\nVirgin CDV2824
EXTT0=
EXTT1=
EXTT2=
EXTT3=
EXTT4=
EXTT5=
EXTT6=
EXTT7=
EXTT8=
PLAYORDER=
